<?xml version="1.0" encoding="UTF-8"?>
<svg version="1.1" xmlns="http://www.w3.org/2000/svg" width="512" height="512">
<path d="M0 0 C2.38971626 0.07783989 4.77936405 0.15780543 7.16894531 0.23968506 C9.71269692 0.24589789 12.25648792 0.24239316 14.80021667 0.22994995 C20.2579908 0.22495671 25.70831982 0.28684227 31.16456032 0.4111824 C39.05135951 0.59079356 46.93536964 0.64734931 54.82399198 0.67491822 C67.62416517 0.72294764 80.42123597 0.86900778 93.21972656 1.07757568 C105.64437442 1.27983946 118.06817658 1.4353981 130.49414062 1.52874756 C131.64498481 1.53741743 131.64498481 1.53741743 132.81907836 1.54626246 C136.66844521 1.57497545 140.517818 1.6027765 144.36719477 1.63012433 C176.25024529 1.85781462 208.12939926 2.24659995 240.00952148 2.73724365 C240.4399003 3.48368228 240.87027912 4.23012091 241.31369972 4.99917889 C242.93107888 7.80410794 244.54863271 10.60893616 246.16629982 13.41369915 C246.86255827 14.62097442 247.55874977 15.8282883 248.25486946 17.03564358 C253.26566383 25.72626335 258.29891706 34.40262854 263.38452148 43.04974365 C264.09100631 44.25280722 264.79738275 45.45593445 265.50366211 46.65911865 C266.95280012 49.12761924 268.40237607 51.59586178 269.85229492 54.06390381 C273.05496079 59.51632395 276.25179148 64.97216445 279.44903564 70.42776489 C281.21895595 73.4477328 282.98925813 76.46747683 284.75952148 79.48724365 C285.46785665 80.69557591 286.17618998 81.90390925 286.88452148 83.11224365 C287.23514648 83.71036865 287.58577148 84.30849365 287.94702148 84.92474365 C300.34285482 106.07057699 312.73868815 127.21641032 325.13452148 148.36224365 C325.48511124 148.96030823 325.83570099 149.5583728 326.19691467 150.17456055 C326.90560509 151.38350362 327.61429446 152.59244731 328.32298279 153.8013916 C330.08834421 156.81290093 331.8537235 159.82439979 333.61914062 162.83587646 C336.87189318 168.38451543 340.12458105 173.93319215 343.37640381 179.4823761 C344.12694868 180.76301028 344.87763953 182.04355891 345.628479 183.32402039 C347.45117163 186.43268182 349.27171941 189.54255256 351.0871582 192.65545654 C354.11678749 197.84511243 357.16198614 203.01946614 360.33374023 208.1239624 C360.81528564 208.90803467 361.29683105 209.69210693 361.79296875 210.49993896 C362.65026594 211.8897121 363.52066421 213.27154334 364.40771484 214.64251709 C366.13396648 217.45769358 367.04582081 219.23646819 366.80395508 222.57318115 C365.92803858 226.06177298 364.63859684 228.56462453 362.79077148 231.6473999 C362.46133545 232.20330307 362.13189941 232.75920624 361.79248047 233.33195496 C360.70672697 235.15981138 359.60810978 236.97957774 358.50952148 238.79974365 C357.73834167 240.09342037 356.96817693 241.38770267 356.19897461 242.68255615 C354.60068264 245.37127972 352.99806071 248.05734861 351.39233398 250.74163818 C348.07774719 256.29004848 344.81659329 261.86956695 341.55508423 267.44927979 C339.79629996 270.45688763 338.03358581 273.46219046 336.27124023 276.4677124 C335.56338918 277.67522841 334.85554414 278.88274795 334.14770508 280.090271 C332.3472256 283.16144672 330.54621382 286.23230994 328.74502563 289.30307007 C321.82108189 301.10741703 314.9007728 312.9137659 308.00952148 324.73724365 C302.91758439 333.47359678 297.81195649 342.20184264 292.69702148 350.92474365 C292.34207611 351.53006927 291.98713074 352.1353949 291.62142944 352.75906372 C288.72004375 357.70685326 285.8179799 362.65424494 282.91589355 367.60162354 C280.38429004 371.91748016 277.85299787 376.23351922 275.32202148 380.54974365 C274.96816376 381.15314575 274.61430603 381.75654785 274.24972534 382.37823486 C268.90566842 391.49177006 263.57420703 400.61258738 258.26464844 409.74627686 C257.23503838 411.5147466 256.180956 413.26915497 255.10508823 415.00987053 C253.37136089 417.93720044 252.02842365 420.95055042 250.67778683 424.07148933 C243.87239593 438.75796437 243.87239593 438.75796437 237.48285222 442.03187132 C230.16314305 444.11124326 222.61175344 443.75567918 215.07226562 443.61566162 C212.55108846 443.64878869 210.03001913 443.69122591 207.50914001 443.74221802 C201.39496959 443.83947399 195.28850668 443.83426798 189.17405564 443.77718996 C184.20162071 443.73279419 179.23083964 443.73105381 174.25829887 443.75906754 C173.54805916 443.76301611 172.83781945 443.76696468 172.10605733 443.77103291 C170.66277103 443.77921228 169.2194852 443.7874764 167.77619987 443.7958243 C154.27079398 443.8687461 140.76863883 443.80577369 127.26364803 443.69664802 C115.70086079 443.60654673 104.14351466 443.63764017 92.58105469 443.75628662 C79.12267291 443.89435544 65.66760013 443.95321978 52.20854849 443.8901149 C50.77055279 443.88361081 49.33255657 443.87722038 47.89455986 443.87094498 C47.18722422 443.86783234 46.47988858 443.8647197 45.75111853 443.86151274 C40.79081511 443.84516468 35.83282054 443.88489148 30.87294197 443.94720078 C24.18004731 444.02975797 17.49945468 443.98402304 10.80678749 443.85428238 C8.36008596 443.82587892 5.91251262 443.8378206 3.46629715 443.89425659 C-11.54376515 444.21051758 -11.54376515 444.21051758 -17.99047852 440.73724365 C-23.85479412 434.86555171 -27.2130372 427.39134577 -30.52731907 419.88913178 C-32.92138679 414.73191283 -35.86703843 409.91226345 -38.80297852 405.04974365 C-39.44493164 403.94888428 -40.08688477 402.8480249 -40.74829102 401.71380615 C-48.14250033 389.04332687 -55.56785157 376.39108687 -62.99047852 363.73724365 C-65.88665288 358.79994361 -68.78261146 353.86251718 -71.67797852 348.92474365 C-72.03316559 348.3190152 -72.38835266 347.71328674 -72.75430298 347.08920288 C-78.07885142 338.00788044 -83.38819047 328.91777178 -88.68920898 319.82269287 C-95.37790731 308.3506539 -102.09839971 296.89726876 -108.81713867 285.44281006 C-110.60894694 282.38793206 -112.40032313 279.33280112 -114.19129944 276.2774353 C-114.89904031 275.07014198 -115.60691607 273.86292771 -116.31492615 272.65579224 C-118.07154485 269.66038226 -119.82581372 266.66364455 -121.57519531 263.66400146 C-124.88922104 257.98722277 -128.2262314 252.32765052 -131.64007568 246.71017456 C-133.25324579 244.05273529 -134.85413033 241.38799655 -136.45410156 238.72259521 C-137.22125801 237.45244088 -137.99443718 236.1859025 -138.77392578 234.92327881 C-139.85368105 233.17345184 -140.91215434 231.412296 -141.96704102 229.6473999 C-142.57628418 228.64845703 -143.18552734 227.64951416 -143.81323242 226.62030029 C-145.26729342 223.05932843 -145.07777987 221.40174146 -143.99047852 217.73724365 C-142.58618164 214.85418701 -142.58618164 214.85418701 -140.77172852 211.8270874 C-140.27757446 210.99323265 -140.27757446 210.99323265 -139.7734375 210.14253235 C-138.687684 208.31467593 -137.58906681 206.49490956 -136.49047852 204.67474365 C-135.7192987 203.38106693 -134.94913396 202.08678463 -134.17993164 200.79193115 C-132.58163967 198.10320759 -130.97901774 195.41713869 -129.37329102 192.73284912 C-126.05870422 187.18443882 -122.79755032 181.60492035 -119.53604126 176.02520752 C-117.777257 173.01759967 -116.01454284 170.01229684 -114.25219727 167.0067749 C-113.54434621 165.79925889 -112.83650117 164.59173935 -112.12866211 163.38421631 C-110.32818263 160.31304058 -108.52717085 157.24217736 -106.72598267 154.17141724 C-99.80203892 142.36707027 -92.88172983 130.5607214 -85.99047852 118.73724365 C-80.89854142 110.00089053 -75.79291352 101.27264466 -70.67797852 92.54974365 C-70.14556046 91.64175522 -70.14556046 91.64175522 -69.60238647 90.71542358 C-66.70100078 85.76763405 -63.79893693 80.82024236 -60.89685059 75.87286377 C-58.36524707 71.55700714 -55.8339549 67.24096808 -53.30297852 62.92474365 C-52.94912079 62.32134155 -52.59526306 61.71793945 -52.23068237 61.09625244 C-46.88662545 51.98271725 -41.55516406 42.86189993 -36.24560547 33.72821045 C-35.2161344 31.95997944 -34.16174898 30.20606005 -33.08517742 28.46610451 C-31.34881687 25.53496655 -30.01208491 22.51770978 -28.66655445 19.38960838 C-21.92558673 4.77340894 -16.16205279 -0.04407334 0 0 Z M31.00952148 134.73724365 C30.42041992 135.25157959 29.83131836 135.76591553 29.22436523 136.2958374 C10.7772506 153.08576443 -0.52220238 181.0588069 -2.17504883 205.46234131 C-3.63986272 236.96637815 5.04195652 265.92731722 26.00952148 289.73724365 C26.86693114 290.81801212 27.72170477 291.90088584 28.57202148 292.98724365 C42.31957058 308.49729904 62.24085255 319.2262314 82.00952148 324.73724365 C83.09620117 325.05693115 84.18288086 325.37661865 85.30249023 325.70599365 C102.46561871 329.97208773 123.042155 329.71218067 140.00952148 324.73724365 C141.18385742 324.42013428 142.35819336 324.1030249 143.56811523 323.77630615 C158.95666594 319.18416721 173.14209306 311.55287658 185.00952148 300.73724365 C185.75975586 300.12751709 186.50999023 299.51779053 187.28295898 298.8895874 C207.98164319 281.78593782 221.12993176 254.11537214 224.00952148 227.73724365 C225.87433273 192.14367242 216.44126991 162.7689091 192.62670898 136.06536865 C173.02187906 115.348623 145.08586705 102.65394834 116.60327148 101.4520874 C83.80585785 100.65527388 54.76826867 112.07961487 31.00952148 134.73724365 Z " fill="#000000" transform="translate(144.990478515625,34.26275634765625)"/>
<path d="M0 0 C1.05058594 0.350625 2.10117187 0.70125 3.18359375 1.0625 C23.13878237 8.53596466 38.13792556 24.37437336 47.55859375 43.09765625 C56.72744583 63.74797888 57.27771118 87.25921172 49.53515625 108.41015625 C40.2507532 130.12101224 24.64445928 145.81831933 3.03613281 155.19091797 C-16.35721215 162.89709845 -38.90041019 163.55731789 -58.33178711 155.6418457 C-79.69576948 146.31664226 -95.33524611 131.92836588 -104.71875 110.3984375 C-108.02987651 101.61587634 -110.58042685 92.41303248 -111 83 C-111.03996094 82.33484375 -111.07992187 81.6696875 -111.12109375 80.984375 C-111.85635184 57.6291179 -103.02120339 37.69989512 -87.7578125 20.46875 C-65.51752925 -3.15699352 -30.48201394 -10.44704875 0 0 Z " fill="#000000" transform="translate(284,171)"/>
</svg>
